Coordinates
version=1
nRows=10
nColumns=46
inDegrees=yes

Units are S.I. units (second, meters, Newtons, ...)
Angles are in degrees.

endheader
time	pelvis_tilt	pelvis_list	pelvis_rotation	pelvis_tx	pelvis_ty	pelvis_tz	bb_angle	bb_tx	bb_ty	bb_tz	hip_flexion_r	hip_adduction_r	hip_rotation_r	knee_angle_r	knee_angle_r_beta	ankle_angle_r	subtalar_angle_r	mtp_angle_r	crank_angle_r	hip_flexion_l	hip_adduction_l	hip_rotation_l	knee_angle_l	knee_angle_l_beta	ankle_angle_l	subtalar_angle_l	mtp_angle_l	crank_angle_l	lumbar_extension	lumbar_bending	lumbar_rotation	arm_flex_r	arm_add_r	arm_rot_r	elbow_flex_r	pro_sup_r	wrist_flex_r	wrist_dev_r	arm_flex_l	arm_add_l	arm_rot_l	elbow_flex_l	pro_sup_l	wrist_flex_l	wrist_dev_l
      7.50000000	    -16.58615779	     -6.53357516	     -7.55067567	      0.14569591	      1.16005825	     -0.26593616	      0.00000000	      0.50000000	      0.00000000	      0.25000000	     96.52993394	      0.95255773	     -5.55532191	    104.35326706	      1.82130810	    -17.95400325	     -8.96390592	      0.00000000	      0.00000000	     35.17940013	    -15.01270522	     -9.26167244	     39.55532092	      0.69037059	     15.23005804	      4.53407263	      0.00000000	      0.00000000	    -61.12508411	      5.47155900	     14.44046058	     89.85437454	     -9.29163546	     31.56244447	     53.35362126	     23.41973064	      0.00000000	      0.00000000	     89.75225895	    -10.80985476	     38.16459770	     42.31501405	     23.64951681	      0.00000000	      0.00000000
      7.50500000	    -17.02696858	     -6.35606157	     -7.64358172	      0.14447672	      1.16059755	     -0.26562580	      0.00000000	      0.50000000	      0.00000000	      0.25000000	     96.36035614	      1.18120994	     -5.42563600	    102.89766922	      1.79590312	    -16.13951565	     -8.31829255	      0.00000000	      0.00000000	     36.55730756	    -15.13883847	     -8.96600565	     42.08395428	      0.73450356	     14.95052119	      3.94561839	      0.00000000	      0.00000000	    -60.96686945	      5.32839996	     14.35693350	     89.85655395	     -9.21735014	     31.30814266	     53.75711963	     23.34279331	      0.00000000	      0.00000000	     89.75544505	    -11.10100073	     37.51701576	     42.80818144	     23.70129154	      0.00000000	      0.00000000
      7.51000000	    -17.35178131	     -6.15142878	     -7.61990192	      0.14332656	      1.16128259	     -0.26542852	      0.00000000	      0.50000000	      0.00000000	      0.25000000	     95.93816527	      1.34028864	     -5.18602236	    101.38977353	      1.76958538	    -14.02660946	     -7.53386638	      0.00000000	      0.00000000	     37.93705538	    -15.16119796	     -8.53745828	     44.72659263	      0.78062630	     14.56081572	      3.37084794	      0.00000000	      0.00000000	    -60.95549180	      5.18952631	     14.13765656	     89.85879149	     -9.15073762	     30.90924076	     54.31865365	     23.27391641	      0.00000000	      0.00000000	     89.75501156	    -11.26857725	     36.83720413	     43.50088827	     23.78951076	      0.00000000	      0.00000000
      7.51500000	    -17.53179013	     -5.70771158	     -7.75985723	      0.14238558	      1.16219747	     -0.26464013	      0.00000000	      0.50000000	      0.00000000	      0.25000000	     95.30964296	      1.70054264	     -4.73260324	     99.76870244	      1.74129235	    -12.31830355	     -7.53089936	      0.00000000	      0.00000000	     39.09983252	    -15.10975544	     -8.48589309	     47.32499496	      0.82597698	     13.98484996	      2.93488628	      0.00000000	      0.00000000	    -61.00613987	      4.64699052	     13.67960184	     89.85954677	     -9.15520034	     30.54420775	     54.82406031	     23.31067019	      0.00000000	      0.00000000	     89.76254468	    -11.40959007	     36.34434724	     44.03071841	     23.85502821	      0.00000000	      0.00000000
      7.52000000	    -18.00678548	     -5.66693084	     -7.70307373	      0.14112011	      1.16226369	     -0.26438112	      0.00000000	      0.50000000	      0.00000000	      0.25000000	     94.73072366	      1.85690035	     -4.54835744	     97.99790234	      1.71038606	     -9.45981855	     -5.83608711	      0.00000000	      0.00000000	     40.93488379	    -15.24351995	     -7.70558098	     50.27995704	      0.87755080	     13.46593715	      2.19624932	      0.00000000	      0.00000000	    -60.96568232	      4.68243954	     13.58066455	     89.86226086	     -8.94460650	     29.94096283	     55.56117646	     23.63417898	      0.00000000	      0.00000000	     89.74853816	    -11.78748400	     35.17723054	     45.18622047	     24.38257280	      0.00000000	      0.00000000
      7.52500000	    -18.31209943	     -5.46377580	     -7.72568184	      0.14008394	      1.16260779	     -0.26365376	      0.00000000	      0.50000000	      0.00000000	      0.25000000	     93.92305318	      2.18884610	     -4.18255427	     96.16288307	      1.67835893	     -7.14379113	     -5.09811771	      0.00000000	      0.00000000	     42.56316011	    -15.34375168	     -7.21225070	     53.18538687	      0.92826011	     12.70502010	      1.68204066	      0.00000000	      0.00000000	    -60.94646283	      4.44327475	     13.31373455	     89.86443344	     -8.84851078	     29.68159205	     56.00809885	     23.56126513	      0.00000000	      0.00000000	     89.74854157	    -12.02538894	     34.75625438	     45.77517854	     24.47165708	      0.00000000	      0.00000000
      7.53000000	    -18.55486778	     -5.12898120	     -7.59293964	      0.13907781	      1.16263651	     -0.26305844	      0.00000000	      0.50000000	      0.00000000	      0.25000000	     93.01173555	      2.26441599	     -3.74670656	     94.33687781	      1.64648912	     -4.69203933	     -4.11982375	      0.00000000	      0.00000000	     44.20945540	    -15.16766884	     -6.59389290	     56.07487497	      0.97869120	     11.84838023	      1.13978755	      0.00000000	      0.00000000	    -60.97168622	      4.19043404	     12.77012599	     89.86571471	     -8.75239445	     29.26786308	     56.64552074	     23.37959826	      0.00000000	      0.00000000	     89.74443537	    -12.45830701	     34.03398652	     46.82543257	     24.63385188	      0.00000000	      0.00000000
      7.53500000	    -18.81862847	     -4.92429934	     -7.52906057	      0.13813510	      1.16255728	     -0.26242146	      0.00000000	      0.50000000	      0.00000000	      0.25000000	     91.97676738	      2.41569059	     -3.48022122	     92.32944875	      1.61145288	     -2.37121823	     -3.49221059	      0.00000000	      0.00000000	     45.94980272	    -15.14786176	     -5.98378436	     59.00968949	      1.02991337	     10.80188377	      0.52043254	      0.00000000	      0.00000000	    -60.93751387	      3.97904954	     12.40965354	     89.86809790	     -8.69847059	     29.07989864	     57.01109476	     23.32635405	      0.00000000	      0.00000000	     89.74484177	    -12.73467542	     33.63661038	     47.39872136	     24.72005918	      0.00000000	      0.00000000
      7.54000000	    -18.95746511	     -4.52923150	     -7.11433298	      0.13721941	      1.16231909	     -0.26195139	      0.00000000	      0.50000000	      0.00000000	      0.25000000	     90.83568427	      2.23273572	     -2.95608062	     90.42568907	      1.57822600	      0.02937368	     -2.48841729	      0.00000000	      0.00000000	     47.63953994	    -14.64790731	     -5.17515666	     61.82782006	      1.07909903	      9.58011095	     -0.16089871	      0.00000000	      0.00000000	    -61.03431960	      3.84059374	     11.54664825	     89.86900788	     -8.56604639	     28.71907726	     57.64909800	     23.10822942	      0.00000000	      0.00000000	     89.73721654	    -13.31219514	     32.88254977	     48.69859646	     24.94055483	      0.00000000	      0.00000000
      7.54500000	    -19.07631222	     -4.41906206	     -7.02795616	      0.13658608	      1.16226270	     -0.26172268	      0.00000000	      0.50000000	      0.00000000	      0.25000000	     89.44885993	      2.35906537	     -2.74829235	     88.23838037	      1.54005026	      2.07816656	     -1.95376449	      0.00000000	      0.00000000	     49.29881908	    -14.62956930	     -4.53941667	     64.72013865	      1.12957951	      8.34306751	     -0.77182640	      0.00000000	      0.00000000	    -61.13702206	      3.70137664	     11.20897656	     89.87076540	     -8.50887670	     28.54699732	     57.97542942	     23.03027324	      0.00000000	      0.00000000	     89.73094844	    -13.62487705	     32.43245286	     49.33076057	     25.05995799	      0.00000000	      0.00000000
